<svg width="29" height="28" viewBox="0 0 29 28" fill="none" xmlns="http://www.w3.org/2000/svg">
<rect x="0.0361328" y="0.0853271" width="28.6951" height="27.5915" rx="13.7957" fill="#EF5701"/>
<path d="M11.3324 20.8643C11.6907 20.8643 11.9812 20.575 11.9812 20.218C11.9812 19.8611 11.6907 19.5718 11.3324 19.5718C10.9741 19.5718 10.6836 19.8611 10.6836 20.218C10.6836 20.575 10.9741 20.8643 11.3324 20.8643Z" stroke="white" stroke-width="2.20732" stroke-linecap="round" stroke-linejoin="round"/>
<path d="M18.472 20.8643C18.8303 20.8643 19.1208 20.575 19.1208 20.218C19.1208 19.8611 18.8303 19.5718 18.472 19.5718C18.1137 19.5718 17.8232 19.8611 17.8232 20.218C17.8232 20.575 18.1137 20.8643 18.472 20.8643Z" stroke="white" stroke-width="2.20732" stroke-linecap="round" stroke-linejoin="round"/>
<path d="M6.13867 7.28497H8.73552L10.4754 15.944C10.5348 16.2417 10.6974 16.5091 10.9347 16.6995C11.1721 16.8898 11.4691 16.9909 11.7738 16.9851H18.0842C18.3888 16.9909 18.6859 16.8898 18.9232 16.6995C19.1606 16.5091 19.3232 16.2417 19.3826 15.944L20.4213 10.5183H9.38473" stroke="white" stroke-width="2.20732" stroke-linecap="round" stroke-linejoin="round"/>
</svg>
